<svg width="36" height="36" viewBox="0 0 36 36" fill="none" xmlns="http://www.w3.org/2000/svg">
<path d="M30.1 21.1V21C30.1 21 30.1 20.9 30 20.9L29.9 20.8L29.8 20.7C29.8 20.7 29.7 20.7 29.7 20.6H29.6C29.5 20.6 29.4 20.6 29.3 20.6H29.2C29.2 20.6 29.1 20.6 29.1 20.7L29 20.8L28.9 20.9C28.9 20.9 28.9 21 28.8 21V21.1V21.2V21.3V21.4C28.8 21.4 28.8 21.5 28.9 21.5L29 21.6L29.1 21.7C29.1 21.7 29.2 21.7 29.2 21.8H29.3H29.4H29.5H29.6C29.6 21.8 29.7 21.8 29.7 21.7L29.8 21.6L29.9 21.5C29.9 21.5 29.9 21.4 30 21.4V21.3V21.2C30.1 21.1 30.1 21.1 30.1 21.1Z" fill="#FECA57"/>
<path d="M11.3 27.9V27.8C11.3 27.8 11.3 27.7 11.2 27.7L11.1 27.6L11 27.5C11 27.5 10.9 27.5 10.9 27.4H10.8C10.7 27.4 10.6 27.4 10.5 27.4H10.4C10.4 27.4 10.3 27.4 10.3 27.5L10.2 27.6L10.1 27.7C10.1 27.7 10.1 27.8 10 27.8V27.9V28V28.1V28.2C10 28.2 10 28.3 10.1 28.3L10.2 28.4L10.3 28.5C10.3 28.5 10.4 28.5 10.4 28.6H10.5H10.6C10.8 28.6 11 28.5 11.1 28.4L11.2 28.3C11.2 28.3 11.2 28.2 11.3 28.2V28.1V28V27.9Z" fill="#FECA57"/>
<path d="M36 25.5C36 24.5 35.5 23.5 34.6 23C34.3 20.9 33.3 18.9 31.7 17.5C30 15.9 27.8 15.1 25.5 15.1H19.9L20 13.7H20.4C20.8 13.7 21.1 13.4 21.1 13V9.7C21.1 9.3 20.8 9 20.4 9H19.1L18.5 6.7C18.4 6.4 18.1 6.2 17.8 6.2H11.2V1.4H14C14.4 1.4 14.7 1.1 14.7 0.7C14.7 0.3 14.4 0 14 0H10.6C10.2 0 9.9 0.3 9.9 0.7V6.1H3.3C3 6.1 2.7 6.3 2.6 6.6L2.1 9H0.7C0.3 9 0 9.3 0 9.7V13C0 13.4 0.3 13.7 0.7 13.7H1.1L2.9 34.9C2.9 35.3 3.2 35.5 3.6 35.5L28.4 35.6C31.5 35.6 34.2 33.3 34.6 30.3C35 30 35.3 29.4 35.3 28.9C35.3 28.5 35.2 28.1 34.9 27.8C35.6 27.2 36 26.4 36 25.5ZM34.4 24.7H19.1L19.2 24H33.1C33.6 24 34.1 24.3 34.4 24.7ZM21.2 16.5H21.7V17.5C21.7 17.9 22 18.2 22.4 18.2C22.8 18.2 23.1 17.9 23.1 17.5V16.5H23.6L25.3 18C25.4 18.1 25.6 18.2 25.8 18.2C26 18.2 26.2 18.1 26.3 18C26.6 17.7 26.5 17.3 26.2 17L25.7 16.6C29.3 16.7 32.3 19.3 33 22.7H19.3L19.4 22H26.7C27.1 22 27.4 21.7 27.4 21.3C27.4 20.9 27.1 20.6 26.7 20.6H19.5L19.7 17.9L21.2 16.5ZM3.9 7.5H17.4L17.8 8.9H3.5L3.9 7.5ZM1.4 10.4H19.7V12.3H1.4V10.4ZM9.9 22.9V25.3C9.9 25.7 10.2 26 10.6 26C11 26 11.3 25.7 11.3 25.3V22.9H15.4L14.7 31.3H6.4L5.7 22.9H9.9ZM5.6 21.5L5.2 16.4H9.9V21.5H5.6ZM11.3 21.5V16.4H15.9L15.5 21.5H11.3ZM4.2 34.1L2.5 13.7H9.9V15.1H4.4C4.2 15.1 4 15.2 3.9 15.3C3.8 15.4 3.7 15.6 3.7 15.8L5.1 32.1C5.1 32.5 5.4 32.7 5.8 32.7H15.4C15.8 32.7 16.1 32.4 16.1 32.1L17.4 15.8C17.4 15.6 17.4 15.4 17.2 15.3C17.1 15.2 16.9 15.1 16.7 15.1H11.3V13.7H18.6L18.4 15.7L16.9 34.1H4.2ZM28.4 34.2L18.3 34.1L18.5 31.2C18.8 31.3 19 31.5 19.3 31.7C19.8 32.1 20.5 32.6 21.8 32.6C23.1 32.6 23.7 32.1 24.3 31.7C24.8 31.3 25.1 31.1 26 31.1C26.8 31.1 27.2 31.4 27.7 31.7C28.2 32.1 28.9 32.6 30.2 32.6C31.4 32.6 32.2 31.9 32.8 31.3C32.8 31.3 32.8 31.3 32.9 31.2C32.1 33 30.4 34.2 28.4 34.2ZM33.6 29.3C33.5 29.3 33.4 29.3 33.3 29.4C32.7 29.6 32.3 30 31.9 30.3C31.3 30.8 30.9 31.2 30.2 31.2C29.4 31.2 29 30.9 28.5 30.6C28 30.2 27.3 29.7 26 29.7C24.7 29.7 24.1 30.2 23.5 30.6C23 31 22.7 31.2 21.8 31.2C21 31.2 20.6 30.9 20.1 30.6C19.7 30.3 19.3 30 18.6 29.8L18.7 28.4H33.3C33.5 28.4 33.8 28.6 33.8 28.9C33.9 29 33.8 29.2 33.6 29.3ZM33.1 27H18.9L19 26.1H34.5C34.2 26.6 33.7 27 33.1 27Z" fill="#FCC419"/>
</svg>
